<svg width="18" height="17" viewBox="0 0 18 17" fill="none" xmlns="http://www.w3.org/2000/svg">
<path d="M9.35679 4.12004C6.24987 4.12004 3.72192 6.417 3.72192 9.24004C3.72192 12.0631 6.24987 14.36 9.35679 14.36C12.4637 14.36 14.9917 12.0631 14.9917 9.24004C14.9917 6.417 12.4637 4.12004 9.35679 4.12004ZM9.35679 13.08C7.02607 13.08 5.13064 11.3578 5.13064 9.24004C5.13064 7.12228 7.02607 5.40004 9.35679 5.40004C11.6875 5.40004 13.5829 7.12228 13.5829 9.24004C13.5829 11.3578 11.6875 13.08 9.35679 13.08Z" fill="#8C8C8C"/>
<path d="M8.65243 6.68004H10.0611V9.88004H8.65243V6.68004ZM7.24371 2.20004H11.4699V3.48004H7.24371V2.20004Z" fill="#8C8C8C"/>
<path d="M14.4935 5.8525L13.085 4.57267L14.0811 3.66759L15.4896 4.94741L14.4935 5.8525Z" fill="#8C8C8C"/>
</svg>
