<svg width="16" height="16" viewBox="0 0 16 16" fill="none" xmlns="http://www.w3.org/2000/svg">
<path fill-rule="evenodd" clip-rule="evenodd" d="M4.07528 3H7.93665C9.55133 3 10.6787 4.11269 10.6787 5.70728V10.2927C10.6787 11.8873 9.55133 13 7.93665 13H4.07528C2.4606 13 1.33325 11.8873 1.33325 10.2927V5.70728C1.33325 4.11269 2.4606 3 4.07528 3ZM13.3053 4.58598C13.5979 4.43708 13.9413 4.45265 14.2206 4.62862C14.5 4.80392 14.6666 5.10849 14.6666 5.44148V10.5589C14.6666 10.8926 14.5 11.1965 14.2206 11.3718C14.068 11.4672 13.8973 11.5159 13.7253 11.5159C13.5819 11.5159 13.4386 11.4821 13.3046 11.4137L12.3173 10.9156C11.9519 10.7301 11.7253 10.3579 11.7253 9.94436V6.05536C11.7253 5.64114 11.9519 5.26889 12.3173 5.0848L13.3053 4.58598Z" fill="white"/>
</svg>
